<mxfile host="app.diagrams.net" modified="2022-01-12T16:14:03.900Z" agent="5.0 (X11)" etag="vSUlfzRjFoZ6tgaeBww_" version="16.2.4" type="github">
  <diagram id="9gF03pH9Atrn6OIBVljO" name="Page-1">
    <mxGraphModel dx="814" dy="481" grid="1" gridSize="10" guides="1" tooltips="1" connect="1" arrows="1" fold="1" page="1" pageScale="1" pageWidth="827" pageHeight="1169" math="0" shadow="0">
      <root>
        <mxCell id="0" />
        <mxCell id="1" parent="0" />
        <mxCell id="pyVn9815IjUBJxToEidM-1" value="" style="whiteSpace=wrap;html=1;aspect=fixed;" vertex="1" parent="1">
          <mxGeometry x="110" y="70" width="80" height="80" as="geometry" />
        </mxCell>
      </root>
    </mxGraphModel>
  </diagram>
</mxfile>
